<svg width="138" height="16" viewBox="0 0 138 16" fill="none" xmlns="http://www.w3.org/2000/svg">
<path d="M2.42638 0.0546875C3.00132 0.0546875 3.49894 0.273588 3.91925 0.711288C4.34174 1.14679 4.55299 1.69128 4.55299 2.34458C4.55299 3.01758 4.34066 3.57619 3.91599 4.02039C3.49132 4.46469 2.97736 4.68678 2.37412 4.68678C1.76434 4.68678 1.25147 4.47008 0.835514 4.03678C0.421734 3.60338 0.214844 3.04259 0.214844 2.35439C0.214844 1.65099 0.454404 1.07718 0.933514 0.632881C1.34947 0.247381 1.84709 0.0546875 2.42638 0.0546875ZM2.36432 0.293182C1.96796 0.293182 1.65 0.440184 1.41045 0.734184C1.11209 1.09998 0.962914 1.63578 0.962914 2.34138C0.962914 3.06438 1.11754 3.62078 1.42678 4.01058C1.66416 4.30678 1.97776 4.45489 2.36758 4.45489C2.78354 4.45489 3.12654 4.29269 3.39659 3.96819C3.66881 3.64369 3.80492 3.13189 3.80492 2.43279C3.80492 1.67499 3.65574 1.10978 3.35739 0.737381C3.11783 0.441181 2.78681 0.293182 2.36432 0.293182Z" fill="#e4e4f2"/>
<path d="M6.41431 1.36459C6.41431 1.47569 6.38055 1.56169 6.31304 1.62269C6.21939 1.70539 6.1105 1.74679 5.98637 1.74679C5.82304 1.74679 5.68584 1.67819 5.57477 1.54099C5.47024 1.41469 5.41797 1.26768 5.41797 1.09998C5.41797 0.840883 5.51379 0.606782 5.70544 0.397682C5.83175 0.258282 6.01795 0.143987 6.26404 0.0546875V0.195183C6.0419 0.330183 5.89055 0.455386 5.80997 0.570786C5.75117 0.655786 5.72177 0.755884 5.72177 0.871384C5.72177 1.00638 5.76315 1.07388 5.8459 1.07388C5.86333 1.07388 5.89382 1.06629 5.93737 1.05099C5.99182 1.03139 6.03973 1.02158 6.0811 1.02158C6.17475 1.02158 6.25315 1.05539 6.31631 1.12289C6.38164 1.19039 6.41431 1.27099 6.41431 1.36459Z" fill="#e4e4f2"/>
<path d="M10.8901 0.156006L7.97955 4.31771H9.79582C10.0746 4.31771 10.288 4.25671 10.4361 4.13481C10.5863 4.01281 10.7192 3.76561 10.8346 3.39321L10.9424 3.41281L10.7333 4.58561H7.12695V4.46471L9.96892 0.420609H8.55122C8.31602 0.420609 8.14502 0.446708 8.03832 0.499008C7.93382 0.549008 7.85324 0.623107 7.79662 0.721107C7.74218 0.816907 7.69209 0.997705 7.64635 1.2634H7.52222L7.61369 0.156006H10.8901Z" fill="#e4e4f2"/>
<path d="M14.2215 2.325C14.5285 2.3904 14.7583 2.49491 14.9107 2.63861C15.122 2.83901 15.2276 3.084 15.2276 3.3736C15.2276 3.5936 15.1579 3.80481 15.0185 4.00741C14.8791 4.20771 14.6875 4.35471 14.4436 4.44841C14.2019 4.53981 13.8316 4.58561 13.3329 4.58561H11.2422V4.46471H11.4088C11.594 4.46471 11.7268 4.40591 11.8074 4.28831C11.8575 4.21211 11.8825 4.04981 11.8825 3.80161V0.94001C11.8825 0.66561 11.8509 0.492409 11.7878 0.420609C11.7028 0.324709 11.5765 0.27681 11.4088 0.27681H11.2422V0.156006H13.1565C13.5137 0.156006 13.8001 0.182106 14.0157 0.234406C14.3423 0.312806 14.5917 0.452104 14.7637 0.652504C14.9358 0.850704 15.0218 1.07931 15.0218 1.33851C15.0218 1.56061 14.9543 1.75991 14.8193 1.93631C14.6842 2.11051 14.485 2.2401 14.2215 2.325ZM12.5097 2.14861C12.5903 2.16391 12.6818 2.17581 12.7841 2.18461C12.8886 2.19111 13.003 2.1944 13.1271 2.1944C13.4451 2.1944 13.6835 2.16061 13.8425 2.09311C14.0037 2.02341 14.1267 1.91781 14.2117 1.77621C14.2966 1.63471 14.3391 1.48001 14.3391 1.31241C14.3391 1.05321 14.2334 0.832208 14.0222 0.649208C13.8109 0.466308 13.5028 0.374809 13.0977 0.374809C12.8799 0.374809 12.6839 0.398809 12.5097 0.446709V2.14861ZM12.5097 4.26541C12.7623 4.32421 13.0117 4.35361 13.2578 4.35361C13.652 4.35361 13.9525 4.2654 14.1594 4.089C14.3663 3.9105 14.4697 3.69051 14.4697 3.42921C14.4697 3.25711 14.4229 3.09161 14.3293 2.93261C14.2356 2.77371 14.0832 2.64841 13.8719 2.55701C13.6607 2.46551 13.3993 2.41981 13.0879 2.41981C12.9529 2.41981 12.8375 2.42191 12.7416 2.42631C12.6458 2.43061 12.5685 2.43831 12.5097 2.44921V4.26541Z" fill="#e4e4f2"/>
<path d="M16.9933 0.397705V2.14861H17.9668C18.2194 2.14861 18.3882 2.11051 18.4731 2.03431C18.5863 1.93411 18.6495 1.7577 18.6626 1.5051H18.7834V3.047H18.6626C18.6321 2.8314 18.6016 2.69311 18.5711 2.63211C18.5319 2.55591 18.4677 2.49601 18.3784 2.45241C18.2891 2.40891 18.1519 2.38711 17.9668 2.38711H16.9933V3.84731C16.9933 4.04331 17.002 4.1631 17.0194 4.2066C17.0368 4.248 17.0673 4.28181 17.1109 4.30791C17.1544 4.33191 17.2372 4.34381 17.3592 4.34381H18.1105C18.3609 4.34381 18.5428 4.32641 18.656 4.29161C18.7693 4.25671 18.8782 4.18811 18.9827 4.08581C19.1177 3.95071 19.256 3.74711 19.3976 3.47491H19.5282L19.146 4.58561H15.7324V4.46471H15.8892C15.9937 4.46471 16.0928 4.43971 16.1864 4.38961C16.2561 4.35471 16.3029 4.30251 16.3269 4.23281C16.353 4.16311 16.3661 4.02041 16.3661 3.80481V0.92691C16.3661 0.64601 16.3378 0.472809 16.2812 0.407509C16.2028 0.320409 16.0721 0.27681 15.8892 0.27681H15.7324V0.156006H19.146L19.195 1.12621H19.0676C19.0219 0.893105 18.9707 0.733111 18.9141 0.646011C18.8597 0.558811 18.778 0.492409 18.6691 0.446709C18.582 0.414009 18.4285 0.397705 18.2085 0.397705H16.9933Z" fill="#e4e4f2"/>
<path d="M21.683 2.12901L23.3164 3.75261C23.5842 4.02041 23.8129 4.20341 24.0024 4.30141C24.1918 4.39721 24.3813 4.45161 24.5708 4.46471V4.58561H22.4638V4.46471C22.5901 4.46471 22.6805 4.44401 22.7349 4.40261C22.7915 4.35911 22.8198 4.31121 22.8198 4.25891C22.8198 4.20661 22.809 4.15981 22.7872 4.11841C22.7676 4.07711 22.7001 3.99971 22.5846 3.88651L21.0558 2.37401V3.80161C21.0558 4.02591 21.07 4.174 21.0983 4.2458C21.1201 4.3003 21.1658 4.34711 21.2355 4.38631C21.3292 4.43861 21.4282 4.46471 21.5328 4.46471H21.683V4.58561H19.7949V4.46471H19.9517C20.1346 4.46471 20.2675 4.41131 20.3502 4.30461C20.4025 4.23491 20.4286 4.06731 20.4286 3.80161V0.94001C20.4286 0.71561 20.4145 0.566509 20.3862 0.492409C20.3644 0.440209 20.3197 0.394409 20.2522 0.355209C20.1564 0.303009 20.0562 0.27681 19.9517 0.27681H19.7949V0.156006H21.683V0.27681H21.5328C21.4304 0.27681 21.3313 0.301905 21.2355 0.352005C21.168 0.386805 21.1212 0.439104 21.095 0.508804C21.0689 0.578404 21.0558 0.72221 21.0558 0.94001V2.29561C21.0994 2.25421 21.2486 2.11601 21.5034 1.88081C22.1502 1.28841 22.5411 0.893107 22.6761 0.695007C22.7349 0.607807 22.7643 0.531609 22.7643 0.466309C22.7643 0.416209 22.7414 0.372609 22.6957 0.335609C22.65 0.296409 22.5727 0.27681 22.4638 0.27681H22.3625V0.156006H23.9893V0.27681C23.8935 0.27901 23.8064 0.29211 23.728 0.31601C23.6496 0.34001 23.5538 0.386805 23.4405 0.456505C23.3273 0.524005 23.1879 0.634007 23.0224 0.786407C22.9745 0.830007 22.7534 1.05321 22.3592 1.45611L21.683 2.12901Z" fill="#e4e4f2"/>
<path d="M26.5835 4.46471V4.58561H24.6855V4.46471H24.8423C25.0252 4.46471 25.1581 4.41131 25.2409 4.30461C25.2931 4.23491 25.3193 4.06731 25.3193 3.80161V0.94001C25.3193 0.71561 25.3051 0.567605 25.2768 0.495705C25.255 0.441205 25.2104 0.394409 25.1429 0.355209C25.047 0.303009 24.9468 0.27681 24.8423 0.27681H24.6855V0.156006H26.5835V0.27681H26.4234C26.2426 0.27681 26.1109 0.330205 26.0281 0.436905C25.9737 0.506605 25.9465 0.67431 25.9465 0.94001V3.80161C25.9465 4.02591 25.9606 4.174 25.9889 4.2458C26.0107 4.3003 26.0564 4.34711 26.1261 4.38631C26.2198 4.43861 26.3189 4.46471 26.4234 4.46471H26.5835Z" fill="#e4e4f2"/>
<path d="M29.8134 0.0546875V1.58678H29.6925C29.6533 1.29278 29.5826 1.05858 29.4802 0.884384C29.38 0.710184 29.2363 0.571882 29.049 0.469582C28.8617 0.367182 28.6679 0.315987 28.4675 0.315987C28.241 0.315987 28.0537 0.385685 27.9057 0.525085C27.7576 0.662285 27.6835 0.819083 27.6835 0.995483C27.6835 1.13048 27.7303 1.25359 27.824 1.36459C27.959 1.52799 28.2802 1.74568 28.7877 2.01798C29.2014 2.24008 29.4835 2.41098 29.6337 2.53078C29.7862 2.64838 29.9027 2.78778 29.9833 2.94898C30.066 3.11008 30.1074 3.27888 30.1074 3.45528C30.1074 3.79068 29.9767 4.08029 29.7154 4.32419C29.4562 4.56599 29.122 4.68678 28.7125 4.68678C28.584 4.68678 28.4632 4.67699 28.3499 4.65739C28.2824 4.64649 28.1419 4.60729 27.9285 4.53979C27.7173 4.47009 27.5833 4.43529 27.5267 4.43529C27.4723 4.43529 27.4287 4.45158 27.3961 4.48428C27.3656 4.51698 27.3427 4.58448 27.3275 4.68678H27.2066V3.16779H27.3275C27.3841 3.48579 27.4603 3.72429 27.5561 3.88319C27.6519 4.03999 27.7979 4.17068 27.9939 4.27518C28.192 4.37978 28.4087 4.43198 28.6439 4.43198C28.9162 4.43198 29.1307 4.36018 29.2875 4.21638C29.4464 4.07268 29.5259 3.90279 29.5259 3.70679C29.5259 3.59789 29.4954 3.48798 29.4345 3.37688C29.3757 3.26578 29.2831 3.16238 29.1568 3.06658C29.0719 3.00118 28.8399 2.86289 28.461 2.65169C28.0821 2.43829 27.812 2.26838 27.6509 2.14208C27.4919 2.01578 27.371 1.87638 27.2883 1.72398C27.2055 1.57148 27.1641 1.40379 27.1641 1.22089C27.1641 0.902886 27.2861 0.629586 27.53 0.400986C27.7739 0.170086 28.0842 0.0546875 28.461 0.0546875C28.6962 0.0546875 28.9455 0.112383 29.2091 0.227783C29.331 0.282283 29.417 0.309486 29.4671 0.309486C29.5238 0.309486 29.5695 0.293183 29.6043 0.260483C29.6414 0.225583 29.6708 0.156988 29.6925 0.0546875H29.8134Z" fill="#e4e4f2"/>
<path d="M34.3423 0.156006L34.3913 1.19481H34.2672C34.2432 1.01181 34.2106 0.881211 34.1692 0.802811C34.1017 0.676411 34.0113 0.583908 33.898 0.525108C33.787 0.464108 33.64 0.433609 33.457 0.433609H32.8331V3.81791C32.8331 4.09011 32.8625 4.26001 32.9213 4.32751C33.0041 4.41901 33.1315 4.46471 33.3035 4.46471H33.457V4.58561H31.5787V4.46471H31.7355C31.9228 4.46471 32.0556 4.40811 32.134 4.29481C32.182 4.22511 32.2059 4.06621 32.2059 3.81791V0.433609H31.6734C31.4665 0.433609 31.3195 0.448908 31.2324 0.479408C31.1192 0.520708 31.0223 0.600204 30.9417 0.717804C30.8611 0.835404 30.8132 0.994409 30.798 1.19481H30.6738L30.7261 0.156006H34.3423Z" fill="#e4e4f2"/>
<path d="M36.8835 0.0546875C37.4584 0.0546875 37.956 0.273588 38.3764 0.711288C38.7988 1.14679 39.0101 1.69128 39.0101 2.34458C39.0101 3.01758 38.7978 3.57619 38.3731 4.02039C37.9484 4.46469 37.4345 4.68678 36.8312 4.68678C36.2214 4.68678 35.7086 4.47008 35.2926 4.03678C34.8788 3.60338 34.6719 3.04259 34.6719 2.35439C34.6719 1.65099 34.9115 1.07718 35.3906 0.632881C35.8066 0.247381 36.3042 0.0546875 36.8835 0.0546875ZM36.8214 0.293182C36.4251 0.293182 36.1071 0.440184 35.8676 0.734184C35.5692 1.09998 35.42 1.63578 35.42 2.34138C35.42 3.06438 35.5746 3.62078 35.8839 4.01058C36.1213 4.30678 36.4349 4.45489 36.8247 4.45489C37.2406 4.45489 37.5836 4.29269 37.8537 3.96819C38.1259 3.64369 38.262 3.13189 38.262 2.43279C38.262 1.67499 38.1128 1.10978 37.8145 0.737381C37.5749 0.441181 37.2439 0.293182 36.8214 0.293182Z" fill="#e4e4f2"/>
<path d="M39.1836 0.156006H40.3858L43.0938 3.47821V0.923607C43.0938 0.651407 43.0634 0.481509 43.0024 0.414009C42.9218 0.322609 42.7944 0.27681 42.6202 0.27681H42.4666V0.156006H44.0085V0.27681H43.8517C43.6644 0.27681 43.5316 0.333409 43.4532 0.446709C43.4053 0.516409 43.3813 0.675407 43.3813 0.923607V4.65741H43.2637L40.3433 1.09021V3.81791C40.3433 4.09011 40.3727 4.26001 40.4315 4.32751C40.5143 4.41901 40.6417 4.46471 40.8137 4.46471H40.9705V4.58561H39.4286V4.46471H39.5822C39.7716 4.46471 39.9056 4.40811 39.984 4.29481C40.0319 4.22511 40.0558 4.06621 40.0558 3.81791V0.737404C39.9273 0.587204 39.8293 0.488108 39.7618 0.440208C39.6965 0.392208 39.5996 0.347606 39.4711 0.306206C39.4079 0.286606 39.3121 0.27681 39.1836 0.27681V0.156006Z" fill="#e4e4f2"/>
<path d="M50.2993 4.58561H49.1168L47.6174 2.51451C47.5063 2.51891 47.4159 2.52101 47.3463 2.52101C47.3179 2.52101 47.2874 2.52101 47.2548 2.52101C47.2221 2.51891 47.1884 2.51671 47.1535 2.51451V3.80161C47.1535 4.08031 47.184 4.25351 47.245 4.32101C47.3277 4.41681 47.4519 4.46471 47.6174 4.46471H47.7905V4.58561H45.8926V4.46471H46.0592C46.2465 4.46471 46.3804 4.40371 46.461 4.28181C46.5067 4.21431 46.5296 4.05421 46.5296 3.80161V0.94001C46.5296 0.66121 46.4991 0.488109 46.4381 0.420609C46.3532 0.324709 46.2269 0.27681 46.0592 0.27681H45.8926V0.156006H47.5063C47.9767 0.156006 48.323 0.190806 48.5451 0.260506C48.7694 0.328006 48.9589 0.454304 49.1135 0.639404C49.2703 0.822404 49.3487 1.04121 49.3487 1.29601C49.3487 1.56821 49.2594 1.80451 49.0809 2.00491C48.9045 2.20521 48.6301 2.34681 48.2577 2.42961L49.1723 3.70031C49.3814 3.99211 49.5611 4.18591 49.7113 4.28181C49.8616 4.37761 50.0576 4.43861 50.2993 4.46471V4.58561ZM47.1535 2.30871C47.1949 2.30871 47.2308 2.3098 47.2613 2.312C47.2918 2.312 47.3169 2.312 47.3365 2.312C47.7589 2.312 48.0769 2.22051 48.2903 2.03761C48.5059 1.85461 48.6137 1.62161 48.6137 1.33851C48.6137 1.06191 48.5266 0.837611 48.3524 0.665611C48.1803 0.491311 47.9517 0.404205 47.6664 0.404205C47.5401 0.404205 47.3691 0.424909 47.1535 0.466309V2.30871Z" fill="#e4e4f2"/>
<path d="M51.638 0.397705V2.14861H52.6114C52.8641 2.14861 53.0328 2.11051 53.1178 2.03431C53.231 1.93411 53.2942 1.7577 53.3072 1.5051H53.4281V3.047H53.3072C53.2767 2.8314 53.2463 2.69311 53.2158 2.63211C53.1766 2.55591 53.1123 2.49601 53.023 2.45241C52.9337 2.40891 52.7965 2.38711 52.6114 2.38711H51.638V3.84731C51.638 4.04331 51.6467 4.1631 51.6641 4.2066C51.6815 4.248 51.712 4.28181 51.7556 4.30791C51.7991 4.33191 51.8819 4.34381 52.0038 4.34381H52.7552C53.0056 4.34381 53.1875 4.32641 53.3007 4.29161C53.4139 4.25671 53.5228 4.18811 53.6274 4.08581C53.7624 3.95071 53.9007 3.74711 54.0422 3.47491H54.1729L53.7907 4.58561H50.377V4.46471H50.5338C50.6384 4.46471 50.7374 4.43971 50.8311 4.38961C50.9008 4.35471 50.9476 4.30251 50.9716 4.23281C50.9977 4.16311 51.0108 4.02041 51.0108 3.80481V0.92691C51.0108 0.64601 50.9824 0.472809 50.9258 0.407509C50.8474 0.320409 50.7168 0.27681 50.5338 0.27681H50.377V0.156006H53.7907L53.8397 1.12621H53.7123C53.6666 0.893105 53.6154 0.733111 53.5588 0.646011C53.5043 0.558811 53.4227 0.492409 53.3138 0.446709C53.2267 0.414009 53.0731 0.397705 52.8532 0.397705H51.638Z" fill="#e4e4f2"/>
<path d="M57.3973 0.0546875V1.58678H57.2764C57.2372 1.29278 57.1665 1.05858 57.0641 0.884384C56.9639 0.710184 56.8202 0.571882 56.6329 0.469582C56.4456 0.367182 56.2518 0.315987 56.0514 0.315987C55.825 0.315987 55.6377 0.385685 55.4896 0.525085C55.3415 0.662285 55.2674 0.819083 55.2674 0.995483C55.2674 1.13048 55.3143 1.25359 55.4079 1.36459C55.5429 1.52799 55.8642 1.74568 56.3716 2.01798C56.7854 2.24008 57.0674 2.41098 57.2176 2.53078C57.3701 2.64838 57.4866 2.78778 57.5672 2.94898C57.6499 3.11008 57.6913 3.27888 57.6913 3.45528C57.6913 3.79068 57.5606 4.08029 57.2993 4.32419C57.0402 4.56599 56.7059 4.68678 56.2964 4.68678C56.168 4.68678 56.0471 4.67699 55.9338 4.65739C55.8663 4.64649 55.7259 4.60729 55.5124 4.53979C55.3012 4.47009 55.1673 4.43529 55.1106 4.43529C55.0562 4.43529 55.0126 4.45158 54.98 4.48428C54.9495 4.51698 54.9266 4.58448 54.9114 4.68678H54.7905V3.16779H54.9114C54.968 3.48579 55.0442 3.72429 55.14 3.88319C55.2359 4.03999 55.3818 4.17068 55.5778 4.27518C55.776 4.37978 55.9926 4.43198 56.2278 4.43198C56.5001 4.43198 56.7146 4.36018 56.8714 4.21638C57.0304 4.07268 57.1098 3.90279 57.1098 3.70679C57.1098 3.59789 57.0794 3.48798 57.0184 3.37688C56.9596 3.26578 56.867 3.16238 56.7407 3.06658C56.6558 3.00118 56.4238 2.86289 56.0449 2.65169C55.666 2.43829 55.3959 2.26838 55.2348 2.14208C55.0758 2.01578 54.9549 1.87638 54.8722 1.72398C54.7894 1.57148 54.748 1.40379 54.748 1.22089C54.748 0.902886 54.87 0.629586 55.1139 0.400986C55.3578 0.170086 55.6682 0.0546875 56.0449 0.0546875C56.2801 0.0546875 56.5295 0.112383 56.793 0.227783C56.9149 0.282283 57.001 0.309486 57.051 0.309486C57.1077 0.309486 57.1534 0.293183 57.1882 0.260483C57.2253 0.225583 57.2547 0.156988 57.2764 0.0546875H57.3973Z" fill="#e4e4f2"/>
<path d="M59.4269 2.51121V3.80161C59.4269 4.08031 59.4574 4.25351 59.5184 4.32101C59.6011 4.41681 59.7264 4.46471 59.8941 4.46471H60.0639V4.58561H58.166V4.46471H58.3326C58.5199 4.46471 58.6538 4.40371 58.7344 4.28181C58.7779 4.21431 58.7997 4.05421 58.7997 3.80161V0.94001C58.7997 0.66121 58.7703 0.488109 58.7115 0.420609C58.6266 0.324709 58.5003 0.27681 58.3326 0.27681H58.166V0.156006H59.7895C60.1859 0.156006 60.4984 0.197306 60.7271 0.280106C60.9557 0.360706 61.1485 0.497911 61.3053 0.691711C61.4621 0.885511 61.5405 1.1153 61.5405 1.381C61.5405 1.7425 61.4207 2.03651 61.1811 2.26301C60.9437 2.48951 60.6073 2.60271 60.1717 2.60271C60.065 2.60271 59.9496 2.59511 59.8255 2.57981C59.7013 2.56461 59.5685 2.54171 59.4269 2.51121ZM59.4269 2.325C59.5423 2.3468 59.6447 2.36311 59.734 2.37401C59.8233 2.38491 59.8995 2.39041 59.9627 2.39041C60.1891 2.39041 60.3841 2.30321 60.5474 2.12901C60.7129 1.95261 60.7957 1.725 60.7957 1.4463C60.7957 1.2546 60.7565 1.07721 60.6781 0.913811C60.5997 0.748311 60.4886 0.625308 60.3449 0.544708C60.2011 0.461908 60.0378 0.420609 59.8549 0.420609C59.7438 0.420609 59.6011 0.441205 59.4269 0.482605V2.325Z" fill="#e4e4f2"/>
<path d="M64.9701 0.27681V0.156006H66.5381V0.27681H66.3714C66.1972 0.27681 66.0633 0.349805 65.9697 0.495705C65.9239 0.563205 65.9011 0.72001 65.9011 0.96611V2.76281C65.9011 3.20701 65.8563 3.55221 65.767 3.79831C65.6799 4.04221 65.5069 4.25241 65.2477 4.42881C64.9908 4.60301 64.6401 4.69011 64.1959 4.69011C63.7124 4.69011 63.3454 4.60631 63.095 4.43861C62.8446 4.27091 62.6671 4.04551 62.5625 3.76241C62.4928 3.56851 62.458 3.20491 62.458 2.67131V0.94001C62.458 0.66771 62.4199 0.489205 62.3437 0.404205C62.2696 0.319305 62.1487 0.27681 61.9811 0.27681H61.8145V0.156006H63.7286V0.27681H63.5588C63.3758 0.27681 63.2453 0.334505 63.1669 0.450005C63.1124 0.528405 63.0851 0.69171 63.0851 0.94001V2.87061C63.0851 3.04261 63.1003 3.23971 63.1308 3.46181C63.1635 3.68401 63.2213 3.85711 63.3041 3.98121C63.3868 4.10541 63.5055 4.20771 63.6601 4.28831C63.8169 4.36891 64.0086 4.40921 64.2351 4.40921C64.5247 4.40921 64.7839 4.34601 65.0125 4.21971C65.2412 4.09341 65.3968 3.93221 65.4796 3.73621C65.5645 3.53811 65.6071 3.20381 65.6071 2.73341V0.94001C65.6071 0.66341 65.5766 0.490209 65.5156 0.420609C65.4307 0.324709 65.3044 0.27681 65.1367 0.27681H64.9701Z" fill="#e4e4f2"/>
<path d="M69.7038 2.325C70.0109 2.3904 70.2406 2.49491 70.3931 2.63861C70.6043 2.83901 70.7099 3.084 70.7099 3.3736C70.7099 3.5936 70.6402 3.80481 70.5009 4.00741C70.3615 4.20771 70.1698 4.35471 69.9259 4.44841C69.6842 4.53981 69.314 4.58561 68.8152 4.58561H66.7246V4.46471H66.8912C67.0763 4.46471 67.2091 4.40591 67.2897 4.28831C67.3398 4.21211 67.3648 4.04981 67.3648 3.80161V0.94001C67.3648 0.66561 67.3333 0.492409 67.2701 0.420609C67.1852 0.324709 67.0589 0.27681 66.8912 0.27681H66.7246V0.156006H68.6388C68.996 0.156006 69.2824 0.182106 69.498 0.234406C69.8247 0.312806 70.074 0.452104 70.2461 0.652504C70.4181 0.850704 70.5041 1.07931 70.5041 1.33851C70.5041 1.56061 70.4366 1.75991 70.3016 1.93631C70.1666 2.11051 69.9673 2.2401 69.7038 2.325ZM67.9921 2.14861C68.0726 2.16391 68.1641 2.17581 68.2665 2.18461C68.371 2.19111 68.4853 2.1944 68.6095 2.1944C68.9274 2.1944 69.1659 2.16061 69.3249 2.09311C69.486 2.02341 69.6091 1.91781 69.694 1.77621C69.7789 1.63471 69.8214 1.48001 69.8214 1.31241C69.8214 1.05321 69.7158 0.832208 69.5045 0.649208C69.2933 0.466308 68.9851 0.374809 68.58 0.374809C68.3623 0.374809 68.1663 0.398809 67.9921 0.446709V2.14861ZM67.9921 4.26541C68.2447 4.32421 68.494 4.35361 68.7401 4.35361C69.1343 4.35361 69.4348 4.2654 69.6417 4.089C69.8486 3.9105 69.9521 3.69051 69.9521 3.42921C69.9521 3.25711 69.9052 3.09161 69.8116 2.93261C69.7179 2.77371 69.5655 2.64841 69.3542 2.55701C69.143 2.46551 68.8817 2.41981 68.5703 2.41981C68.4352 2.41981 68.3198 2.42191 68.224 2.42631C68.1282 2.43061 68.0509 2.43831 67.9921 2.44921V4.26541Z" fill="#e4e4f2"/>
<path d="M74.9102 3.36061L75.018 3.38341L74.639 4.58561H71.209V4.46471H71.3756C71.5629 4.46471 71.6968 4.40371 71.7774 4.28181C71.8232 4.21211 71.846 4.05091 71.846 3.79831V0.94001C71.846 0.66341 71.8155 0.490209 71.7546 0.420609C71.6696 0.324709 71.5433 0.27681 71.3756 0.27681H71.209V0.156006H73.2148V0.27681C72.9796 0.27461 72.814 0.296409 72.7182 0.342209C72.6246 0.387909 72.5603 0.445605 72.5255 0.515305C72.4906 0.585005 72.4732 0.751606 72.4732 1.01511V3.79831C72.4732 3.97911 72.4906 4.10321 72.5255 4.17071C72.5516 4.21641 72.5919 4.25021 72.6464 4.27201C72.7008 4.29371 72.8707 4.30461 73.156 4.30461H73.4794C73.8191 4.30461 74.0576 4.27961 74.1948 4.22951C74.332 4.17941 74.4572 4.0912 74.5704 3.9649C74.6837 3.8364 74.7969 3.63501 74.9102 3.36061Z" fill="#e4e4f2"/>
<path d="M77.2299 4.46471V4.58561H75.332V4.46471H75.4888C75.6717 4.46471 75.8045 4.41131 75.8873 4.30461C75.9396 4.23491 75.9657 4.06731 75.9657 3.80161V0.94001C75.9657 0.71561 75.9515 0.567605 75.9232 0.495705C75.9015 0.441205 75.8568 0.394409 75.7893 0.355209C75.6935 0.303009 75.5933 0.27681 75.4888 0.27681H75.332V0.156006H77.2299V0.27681H77.0698C76.8891 0.27681 76.7573 0.330205 76.6746 0.436905C76.6201 0.506605 76.5929 0.67431 76.5929 0.94001V3.80161C76.5929 4.02591 76.6071 4.174 76.6354 4.2458C76.6571 4.3003 76.7029 4.34711 76.7726 4.38631C76.8662 4.43861 76.9653 4.46471 77.0698 4.46471H77.2299Z" fill="#e4e4f2"/>
<path d="M79.392 2.12901L81.0254 3.75261C81.2933 4.02041 81.5219 4.20341 81.7114 4.30141C81.9009 4.39721 82.0903 4.45161 82.2798 4.46471V4.58561H80.1728V4.46471C80.2991 4.46471 80.3895 4.44401 80.4439 4.40261C80.5005 4.35911 80.5289 4.31121 80.5289 4.25891C80.5289 4.20661 80.518 4.15981 80.4962 4.11841C80.4766 4.07711 80.4091 3.99971 80.2937 3.88651L78.7648 2.37401V3.80161C78.7648 4.02591 78.779 4.174 78.8073 4.2458C78.8291 4.3003 78.8748 4.34711 78.9445 4.38631C79.0382 4.43861 79.1372 4.46471 79.2418 4.46471H79.392V4.58561H77.5039V4.46471H77.6607C77.8436 4.46471 77.9765 4.41131 78.0592 4.30461C78.1115 4.23491 78.1376 4.06731 78.1376 3.80161V0.94001C78.1376 0.71561 78.1235 0.566509 78.0952 0.492409C78.0734 0.440209 78.0288 0.394409 77.9612 0.355209C77.8654 0.303009 77.7652 0.27681 77.6607 0.27681H77.5039V0.156006H79.392V0.27681H79.2418C79.1394 0.27681 79.0403 0.301905 78.9445 0.352005C78.877 0.386805 78.8302 0.439104 78.804 0.508804C78.7779 0.578404 78.7648 0.72221 78.7648 0.94001V2.29561C78.8084 2.25421 78.9576 2.11601 79.2124 1.88081C79.8592 1.28841 80.2501 0.893107 80.3851 0.695007C80.4439 0.607807 80.4733 0.531609 80.4733 0.466309C80.4733 0.416209 80.4505 0.372609 80.4047 0.335609C80.359 0.296409 80.2817 0.27681 80.1728 0.27681H80.0715V0.156006H81.6983V0.27681C81.6025 0.27901 81.5154 0.29211 81.437 0.31601C81.3586 0.34001 81.2628 0.386805 81.1495 0.456505C81.0363 0.524005 80.8969 0.634007 80.7314 0.786407C80.6835 0.830007 80.4624 1.05321 80.0682 1.45611L79.392 2.12901Z" fill="#e4e4f2"/>
<path d="M85.2899 3.10249H83.5749L83.2744 3.80158C83.2003 3.97358 83.1633 4.10208 83.1633 4.18698C83.1633 4.25448 83.1949 4.31438 83.258 4.36668C83.3234 4.41678 83.4627 4.44948 83.6762 4.46468V4.58559H82.2812V4.46468C82.4664 4.43198 82.5862 4.38959 82.6406 4.33729C82.7517 4.23279 82.8747 4.02039 83.0098 3.70029L84.568 0.0546875H84.6823L86.2242 3.73949C86.3483 4.03569 86.4605 4.22839 86.5606 4.31769C86.663 4.40479 86.8045 4.45378 86.9853 4.46468V4.58559H85.2376V4.46468C85.414 4.45598 85.5327 4.42659 85.5937 4.37649C85.6569 4.32639 85.6884 4.26539 85.6884 4.19359C85.6884 4.09769 85.6449 3.94639 85.5578 3.73949L85.2899 3.10249ZM85.1984 2.86079L84.4471 1.07059L83.6762 2.86079H85.1984Z" fill="#e4e4f2"/>
<path d="M90.1298 0.0546875V1.58678H90.0089C89.9697 1.29278 89.899 1.05858 89.7966 0.884384C89.6964 0.710184 89.5527 0.571882 89.3654 0.469582C89.1781 0.367182 88.9843 0.315987 88.7839 0.315987C88.5574 0.315987 88.3702 0.385685 88.2221 0.525085C88.074 0.662285 87.9999 0.819083 87.9999 0.995483C87.9999 1.13048 88.0468 1.25359 88.1404 1.36459C88.2754 1.52799 88.5966 1.74568 89.1041 2.01798C89.5178 2.24008 89.7999 2.41098 89.9501 2.53078C90.1026 2.64838 90.2191 2.78778 90.2997 2.94898C90.3824 3.11008 90.4238 3.27888 90.4238 3.45528C90.4238 3.79068 90.2931 4.08029 90.0318 4.32419C89.7726 4.56599 89.4384 4.68678 89.0289 4.68678C88.9004 4.68678 88.7796 4.67699 88.6663 4.65739C88.5988 4.64649 88.4584 4.60729 88.2449 4.53979C88.0337 4.47009 87.8998 4.43529 87.8431 4.43529C87.7887 4.43529 87.7451 4.45158 87.7125 4.48428C87.682 4.51698 87.6591 4.58448 87.6439 4.68678H87.523V3.16779H87.6439C87.7005 3.48579 87.7767 3.72429 87.8725 3.88319C87.9684 4.03999 88.1143 4.17068 88.3103 4.27518C88.5084 4.37978 88.7251 4.43198 88.9603 4.43198C89.2326 4.43198 89.4471 4.36018 89.6039 4.21638C89.7629 4.07268 89.8423 3.90279 89.8423 3.70679C89.8423 3.59789 89.8119 3.48798 89.7509 3.37688C89.6921 3.26578 89.5995 3.16238 89.4732 3.06658C89.3883 3.00118 89.1563 2.86289 88.7774 2.65169C88.3985 2.43829 88.1284 2.26838 87.9673 2.14208C87.8083 2.01578 87.6874 1.87638 87.6047 1.72398C87.5219 1.57148 87.4805 1.40379 87.4805 1.22089C87.4805 0.902886 87.6025 0.629586 87.8464 0.400986C88.0903 0.170086 88.4006 0.0546875 88.7774 0.0546875C89.0126 0.0546875 89.262 0.112383 89.5255 0.227783C89.6474 0.282283 89.7334 0.309486 89.7835 0.309486C89.8402 0.309486 89.8859 0.293183 89.9207 0.260483C89.9578 0.225583 89.9872 0.156988 90.0089 0.0546875H90.1298Z" fill="#e4e4f2"/>
<path d="M92.851 4.46471V4.58561H90.9531V4.46471H91.1099C91.2928 4.46471 91.4257 4.41131 91.5085 4.30461C91.5607 4.23491 91.5869 4.06731 91.5869 3.80161V0.94001C91.5869 0.71561 91.5727 0.567605 91.5444 0.495705C91.5226 0.441205 91.478 0.394409 91.4104 0.355209C91.3146 0.303009 91.2144 0.27681 91.1099 0.27681H90.9531V0.156006H92.851V0.27681H92.691C92.5102 0.27681 92.3785 0.330205 92.2957 0.436905C92.2413 0.506605 92.214 0.67431 92.214 0.94001V3.80161C92.214 4.02591 92.2282 4.174 92.2565 4.2458C92.2783 4.3003 92.324 4.34711 92.3937 4.38631C92.4874 4.43861 92.5865 4.46471 92.691 4.46471H92.851Z" fill="#e4e4f2"/>
<path d="M97.1335 0.0546875C97.7084 0.0546875 98.2056 0.273588 98.6266 0.711288C99.0486 1.14679 99.2596 1.69128 99.2596 2.34458C99.2596 3.01758 99.0476 3.57619 98.6226 4.02039C98.1986 4.46469 97.6844 4.68678 97.0812 4.68678C96.4714 4.68678 95.9585 4.47008 95.5426 4.03678C95.1288 3.60338 94.9219 3.04259 94.9219 2.35439C94.9219 1.65099 95.1615 1.07718 95.6406 0.632881C96.0566 0.247381 96.5542 0.0546875 97.1335 0.0546875ZM97.0714 0.293182C96.675 0.293182 96.3571 0.440184 96.1175 0.734184C95.8192 1.09998 95.67 1.63578 95.67 2.34138C95.67 3.06438 95.8246 3.62078 96.1339 4.01058C96.3712 4.30678 96.6848 4.45489 97.0747 4.45489C97.4906 4.45489 97.8336 4.29269 98.1036 3.96819C98.3756 3.64369 98.5116 3.13189 98.5116 2.43279C98.5116 1.67499 98.3626 1.10978 98.0646 0.737381C97.8249 0.441181 97.4939 0.293182 97.0714 0.293182Z" fill="#e4e4f2"/>
<path d="M103.357 3.36061L103.465 3.38341L103.086 4.58561H99.6562V4.46471H99.8223C100.01 4.46471 100.144 4.40371 100.224 4.28181C100.27 4.21211 100.293 4.05091 100.293 3.79831V0.94001C100.293 0.66341 100.262 0.490209 100.201 0.420609C100.116 0.324709 99.9903 0.27681 99.8223 0.27681H99.6562V0.156006H101.661V0.27681C101.426 0.27461 101.261 0.296409 101.165 0.342209C101.071 0.387909 101.007 0.445605 100.972 0.515305C100.937 0.585005 100.92 0.751606 100.92 1.01511V3.79831C100.92 3.97911 100.937 4.10321 100.972 4.17071C100.998 4.21641 101.039 4.25021 101.093 4.27201C101.148 4.29371 101.317 4.30461 101.603 4.30461H101.926C102.266 4.30461 102.504 4.27961 102.641 4.22951C102.779 4.17941 102.904 4.0912 103.017 3.9649C103.13 3.8364 103.244 3.63501 103.357 3.36061Z" fill="#e4e4f2"/>
<path d="M105.675 4.46471V4.58561H103.777V4.46471H103.934C104.117 4.46471 104.25 4.41131 104.333 4.30461C104.385 4.23491 104.411 4.06731 104.411 3.80161V0.94001C104.411 0.71561 104.397 0.567605 104.369 0.495705C104.347 0.441205 104.302 0.394409 104.235 0.355209C104.139 0.303009 104.039 0.27681 103.934 0.27681H103.777V0.156006H105.675V0.27681H105.515C105.334 0.27681 105.203 0.330205 105.12 0.436905C105.065 0.506605 105.038 0.67431 105.038 0.94001V3.80161C105.038 4.02591 105.052 4.174 105.081 4.2458C105.102 4.3003 105.148 4.34711 105.218 4.38631C105.312 4.43861 105.411 4.46471 105.515 4.46471H105.675Z" fill="#e4e4f2"/>
<path d="M109.028 0.156006H110.573V0.27681H110.488C110.431 0.27681 110.349 0.301905 110.24 0.352005C110.131 0.402005 110.032 0.473904 109.942 0.567604C109.853 0.661204 109.743 0.81361 109.613 1.02491L108.544 2.70721V3.81791C108.544 4.09011 108.575 4.26001 108.636 4.32751C108.719 4.41901 108.849 4.46471 109.028 4.46471H109.172V4.58561H107.29V4.46471H107.447C107.634 4.46471 107.767 4.40811 107.845 4.29481C107.893 4.22511 107.917 4.06621 107.917 3.81791V2.76931L106.702 0.913811C106.558 0.696011 106.46 0.559908 106.408 0.505508C106.358 0.451008 106.252 0.385709 106.091 0.309509C106.048 0.287709 105.984 0.27681 105.902 0.27681V0.156006H107.796V0.27681H107.698C107.596 0.27681 107.501 0.300809 107.414 0.348709C107.329 0.396609 107.287 0.468508 107.287 0.564308C107.287 0.642708 107.353 0.784206 107.486 0.989006L108.41 2.4165L109.279 1.05101C109.41 0.84631 109.475 0.693904 109.475 0.593704C109.475 0.532704 109.459 0.478305 109.426 0.430405C109.396 0.382405 109.351 0.345405 109.292 0.319305C109.234 0.291005 109.145 0.27681 109.028 0.27681V0.156006Z" fill="#e4e4f2"/>
<path d="M114.837 4.58561L113.125 0.858307V3.81791C113.125 4.09011 113.155 4.26001 113.213 4.32751C113.294 4.41901 113.421 4.46471 113.596 4.46471H113.752V4.58561H112.211V4.46471H112.367C112.555 4.46471 112.688 4.40811 112.766 4.29481C112.814 4.22511 112.838 4.06621 112.838 3.81791V0.923607C112.838 0.727607 112.816 0.586108 112.772 0.499008C112.742 0.435808 112.685 0.383509 112.603 0.342209C112.522 0.298609 112.391 0.27681 112.211 0.27681V0.156006H113.465L115.072 3.62191L116.653 0.156006H117.908V0.27681H117.754C117.565 0.27681 117.431 0.333409 117.352 0.446709C117.304 0.516409 117.28 0.675407 117.28 0.923607V3.81791C117.28 4.09011 117.311 4.26001 117.372 4.32751C117.453 4.41901 117.58 4.46471 117.754 4.46471H117.908V4.58561H116.026V4.46471H116.183C116.372 4.46471 116.505 4.40811 116.581 4.29481C116.629 4.22511 116.653 4.06621 116.653 3.81791V0.858307L114.945 4.58561H114.837Z" fill="#e4e4f2"/>
<path d="M121.112 3.10249H119.397L119.097 3.80158C119.023 3.97358 118.986 4.10208 118.986 4.18698C118.986 4.25448 119.017 4.31438 119.08 4.36668C119.146 4.41678 119.285 4.44948 119.499 4.46468V4.58559H118.104V4.46468C118.289 4.43198 118.409 4.38959 118.463 4.33729C118.574 4.23279 118.697 4.02039 118.832 3.70029L120.39 0.0546875H120.505L122.047 3.73949C122.171 4.03569 122.283 4.22839 122.383 4.31769C122.485 4.40479 122.627 4.45378 122.808 4.46468V4.58559H121.06V4.46468C121.236 4.45598 121.355 4.42659 121.416 4.37649C121.479 4.32639 121.511 4.26539 121.511 4.19359C121.511 4.09769 121.467 3.94639 121.38 3.73949L121.112 3.10249ZM121.021 2.86079L120.269 1.07059L119.499 2.86079H121.021Z" fill="#e4e4f2"/>
<path d="M123.55 0.27681V0.156006H125.448V0.27681H125.288C125.108 0.27681 124.976 0.330205 124.893 0.436905C124.841 0.506605 124.815 0.67431 124.815 0.94001V3.1058C124.815 3.439 124.778 3.70901 124.704 3.91591C124.632 4.12281 124.507 4.30351 124.328 4.45821C124.149 4.61061 123.934 4.68681 123.681 4.68681C123.476 4.68681 123.315 4.63671 123.198 4.53661C123.08 4.43421 123.021 4.3177 123.021 4.187C123.021 4.0803 123.048 3.9997 123.103 3.9453C123.175 3.8778 123.259 3.84401 123.354 3.84401C123.424 3.84401 123.486 3.86691 123.541 3.91261C123.597 3.95841 123.668 4.08031 123.753 4.27851C123.803 4.39611 123.867 4.45491 123.946 4.45491C124.005 4.45491 124.059 4.41901 124.109 4.34711C124.161 4.27521 124.187 4.1478 124.187 3.9649V0.94001C124.187 0.71561 124.173 0.567605 124.145 0.495705C124.123 0.441205 124.077 0.394409 124.008 0.355209C123.914 0.303009 123.815 0.27681 123.711 0.27681H123.55Z" fill="#e4e4f2"/>
<path d="M129.328 3.36061L129.436 3.38341L129.057 4.58561H125.627V4.46471H125.793C125.981 4.46471 126.115 4.40371 126.195 4.28181C126.241 4.21211 126.264 4.05091 126.264 3.79831V0.94001C126.264 0.66341 126.233 0.490209 126.172 0.420609C126.087 0.324709 125.961 0.27681 125.793 0.27681H125.627V0.156006H127.633V0.27681C127.397 0.27461 127.232 0.296409 127.136 0.342209C127.042 0.387909 126.978 0.445605 126.943 0.515305C126.908 0.585005 126.891 0.751606 126.891 1.01511V3.79831C126.891 3.97911 126.908 4.10321 126.943 4.17071C126.969 4.21641 127.01 4.25021 127.064 4.27201C127.119 4.29371 127.288 4.30461 127.574 4.30461H127.897C128.237 4.30461 128.475 4.27961 128.613 4.22951C128.75 4.17941 128.875 4.0912 128.988 3.9649C129.101 3.8364 129.215 3.63501 129.328 3.36061Z" fill="#e4e4f2"/>
<path d="M131.646 4.46471V4.58561H129.748V4.46471H129.905C130.088 4.46471 130.221 4.41131 130.304 4.30461C130.356 4.23491 130.382 4.06731 130.382 3.80161V0.94001C130.382 0.71561 130.368 0.567605 130.34 0.495705C130.318 0.441205 130.273 0.394409 130.206 0.355209C130.11 0.303009 130.01 0.27681 129.905 0.27681H129.748V0.156006H131.646V0.27681H131.486C131.305 0.27681 131.174 0.330205 131.091 0.436905C131.037 0.506605 131.009 0.67431 131.009 0.94001V3.80161C131.009 4.02591 131.023 4.174 131.052 4.2458C131.074 4.3003 131.119 4.34711 131.189 4.38631C131.283 4.43861 131.382 4.46471 131.486 4.46471H131.646Z" fill="#e4e4f2"/>
<path d="M134.878 0.0546875V1.58678H134.757C134.718 1.29278 134.647 1.05858 134.545 0.884384C134.445 0.710184 134.301 0.571882 134.114 0.469582C133.926 0.367182 133.733 0.315987 133.532 0.315987C133.306 0.315987 133.118 0.385685 132.97 0.525085C132.822 0.662285 132.748 0.819083 132.748 0.995483C132.748 1.13048 132.795 1.25359 132.889 1.36459C133.024 1.52799 133.345 1.74568 133.852 2.01798C134.266 2.24008 134.548 2.41098 134.698 2.53078C134.851 2.64838 134.967 2.78778 135.048 2.94898C135.131 3.11008 135.172 3.27888 135.172 3.45528C135.172 3.79068 135.041 4.08029 134.78 4.32419C134.521 4.56599 134.187 4.68678 133.777 4.68678C133.649 4.68678 133.528 4.67699 133.415 4.65739C133.347 4.64649 133.207 4.60729 132.993 4.53979C132.782 4.47009 132.648 4.43529 132.591 4.43529C132.537 4.43529 132.493 4.45158 132.461 4.48428C132.43 4.51698 132.407 4.58448 132.392 4.68678H132.271V3.16779H132.392C132.449 3.48579 132.525 3.72429 132.621 3.88319C132.717 4.03999 132.862 4.17068 133.058 4.27518C133.257 4.37978 133.473 4.43198 133.709 4.43198C133.981 4.43198 134.195 4.36018 134.352 4.21638C134.511 4.07268 134.591 3.90279 134.591 3.70679C134.591 3.59789 134.56 3.48798 134.499 3.37688C134.44 3.26578 134.348 3.16238 134.221 3.06658C134.137 3.00118 133.905 2.86289 133.526 2.65169C133.147 2.43829 132.877 2.26838 132.716 2.14208C132.557 2.01578 132.436 1.87638 132.353 1.72398C132.27 1.57148 132.229 1.40379 132.229 1.22089C132.229 0.902886 132.351 0.629586 132.595 0.400986C132.839 0.170086 133.149 0.0546875 133.526 0.0546875C133.761 0.0546875 134.01 0.112383 134.274 0.227783C134.396 0.282283 134.482 0.309486 134.532 0.309486C134.588 0.309486 134.634 0.293183 134.669 0.260483C134.706 0.225583 134.735 0.156988 134.757 0.0546875H134.878Z" fill="#e4e4f2"/>
<path d="M137.597 4.46471V4.58561H135.699V4.46471H135.856C136.039 4.46471 136.172 4.41131 136.255 4.30461C136.307 4.23491 136.333 4.06731 136.333 3.80161V0.94001C136.333 0.71561 136.319 0.567605 136.291 0.495705C136.269 0.441205 136.224 0.394409 136.157 0.355209C136.061 0.303009 135.961 0.27681 135.856 0.27681H135.699V0.156006H137.597V0.27681H137.437C137.256 0.27681 137.125 0.330205 137.042 0.436905C136.987 0.506605 136.96 0.67431 136.96 0.94001V3.80161C136.96 4.02591 136.974 4.174 137.003 4.2458C137.024 4.3003 137.07 4.34711 137.14 4.38631C137.233 4.43861 137.333 4.46471 137.437 4.46471H137.597Z" fill="#e4e4f2"/>
<path d="M33.9125 13.9788C34.1346 14.3621 34.3742 14.6441 34.6312 14.8249C34.8903 15.0056 35.1843 15.1091 35.5132 15.1352V15.2397C35.2127 15.2289 34.8914 15.1679 34.5495 15.0568C34.2076 14.9479 33.8831 14.7955 33.576 14.5995C33.2712 14.4057 33.0076 14.1988 32.7855 13.9788C32.4719 13.8525 32.2236 13.7186 32.0407 13.577C31.775 13.3658 31.5681 13.1066 31.42 12.7995C31.2741 12.4903 31.2012 12.1255 31.2012 11.7052C31.2012 11.0432 31.4157 10.4933 31.8447 10.0555C32.2737 9.61779 32.7931 9.3989 33.4029 9.3989C33.9822 9.3989 34.4831 9.61889 34.9056 10.0588C35.3303 10.4965 35.5426 11.0497 35.5426 11.7183C35.5426 12.2605 35.3912 12.7364 35.0885 13.1458C34.788 13.5552 34.396 13.8329 33.9125 13.9788ZM33.3637 9.65049C32.9674 9.65049 32.6483 9.792 32.4066 10.0751C32.1017 10.4301 31.9492 10.9735 31.9492 11.7052C31.9492 12.4217 32.1039 12.9738 32.4131 13.3614C32.6527 13.6598 32.9695 13.8089 33.3637 13.8089C33.7731 13.8089 34.1031 13.6598 34.3535 13.3614C34.6475 13.0086 34.7945 12.4881 34.7945 11.7999C34.7945 11.2707 34.7139 10.8254 34.5528 10.4639C34.4286 10.1851 34.2631 9.98039 34.0562 9.84969C33.8515 9.71689 33.6207 9.65049 33.3637 9.65049Z" fill="#e4e4f2"/>
<path d="M38.2467 9.3989C38.8216 9.3989 39.3193 9.61779 39.7396 10.0555C40.1621 10.4911 40.3733 11.0355 40.3733 11.6889C40.3733 12.3618 40.161 12.9204 39.7363 13.3647C39.3116 13.8089 38.7977 14.0311 38.1944 14.0311C37.5846 14.0311 37.0718 13.8144 36.6558 13.381C36.242 12.9476 36.0352 12.3868 36.0352 11.6987C36.0352 10.9952 36.2747 10.4214 36.7538 9.97709C37.1698 9.59169 37.6674 9.3989 38.2467 9.3989ZM38.1846 9.63739C37.7883 9.63739 37.4703 9.78439 37.2308 10.0784C36.9324 10.4443 36.7832 10.98 36.7832 11.6856C36.7832 12.4086 36.9378 12.965 37.2471 13.3549C37.4845 13.651 37.7981 13.7991 38.1879 13.7991C38.6038 13.7991 38.9468 13.6369 39.2169 13.3124C39.4891 12.9879 39.6252 12.4761 39.6252 11.7771C39.6252 11.0192 39.4761 10.4541 39.1777 10.0817C38.9381 9.7855 38.6071 9.63739 38.1846 9.63739Z" fill="#e4e4f2"/>
<path d="M40.5469 9.50018H41.7491L44.4571 12.8224V10.2679C44.4571 9.99558 44.4267 9.82579 44.3657 9.75829C44.2851 9.66679 44.1577 9.62109 43.9835 9.62109H43.8299V9.50018H45.3718V9.62109H45.215C45.0277 9.62109 44.8949 9.67769 44.8165 9.79089C44.7686 9.86059 44.7446 10.0196 44.7446 10.2679V14.0017H44.627L41.7066 10.4345V13.1621C41.7066 13.4344 41.736 13.6042 41.7948 13.6717C41.8776 13.7632 42.005 13.8089 42.177 13.8089H42.3338V13.9298H40.7919V13.8089H40.9455C41.1349 13.8089 41.2689 13.7523 41.3473 13.6391C41.3952 13.5694 41.4191 13.4104 41.4191 13.1621V10.0817C41.2906 9.93139 41.1926 9.83229 41.1251 9.78439C41.0598 9.73649 40.9629 9.69178 40.8344 9.65048C40.7712 9.63088 40.6754 9.62109 40.5469 9.62109V9.50018Z" fill="#e4e4f2"/>
<path d="M48.6616 9.62109V9.50018H50.2296V9.62109H50.063C49.8887 9.62109 49.7548 9.69398 49.6612 9.83988C49.6154 9.90738 49.5926 10.0642 49.5926 10.3103V12.107C49.5926 12.5513 49.5479 12.8964 49.4586 13.1425C49.3715 13.3864 49.1984 13.5966 48.9392 13.773C48.6822 13.9472 48.3316 14.0343 47.8874 14.0343C47.4039 14.0343 47.0369 13.9505 46.7865 13.7828C46.536 13.6151 46.3586 13.3897 46.254 13.1066C46.1843 12.9128 46.1495 12.5491 46.1495 12.0155V10.2842C46.1495 10.012 46.1114 9.83338 46.0351 9.74848C45.9611 9.66348 45.8402 9.62109 45.6725 9.62109H45.5059V9.50018H47.4202V9.62109H47.2504C47.0674 9.62109 46.9368 9.67878 46.8584 9.79418C46.8039 9.87258 46.7767 10.0359 46.7767 10.2842V12.2148C46.7767 12.3868 46.7919 12.5839 46.8224 12.8061C46.8551 13.0282 46.9128 13.2013 46.9956 13.3255C47.0783 13.4496 47.197 13.552 47.3516 13.6325C47.5084 13.7131 47.7001 13.7534 47.9266 13.7534C48.2162 13.7534 48.4754 13.6902 48.704 13.5639C48.9327 13.4376 49.0884 13.2765 49.1712 13.0805C49.2561 12.8823 49.2986 12.548 49.2986 12.0776V10.2842C49.2986 10.0076 49.2681 9.83449 49.2071 9.76479C49.1222 9.66899 48.9958 9.62109 48.8282 9.62109H48.6616Z" fill="#e4e4f2"/>
<path d="M50.2168 9.50018H51.4189L54.127 12.8224V10.2679C54.127 9.99558 54.0965 9.82579 54.0355 9.75829C53.955 9.66679 53.8276 9.62109 53.6533 9.62109H53.4998V9.50018H55.0417V9.62109H54.8849C54.6976 9.62109 54.5647 9.67769 54.4863 9.79089C54.4384 9.86059 54.4145 10.0196 54.4145 10.2679V14.0017H54.2969L51.3765 10.4345V13.1621C51.3765 13.4344 51.4059 13.6042 51.4647 13.6717C51.5474 13.7632 51.6748 13.8089 51.8469 13.8089H52.0037V13.9298H50.4618V13.8089H50.6153C50.8048 13.8089 50.9387 13.7523 51.0171 13.6391C51.065 13.5694 51.089 13.4104 51.089 13.1621V10.0817C50.9605 9.93139 50.8625 9.83229 50.795 9.78439C50.7297 9.73649 50.6328 9.69178 50.5043 9.65048C50.4411 9.63088 50.3453 9.62109 50.2168 9.62109V9.50018Z" fill="#e4e4f2"/>
<path d="M59.167 9.3989L59.2683 10.9049H59.167C59.032 10.4541 58.8392 10.1296 58.5888 9.93139C58.3383 9.73319 58.0378 9.63409 57.6872 9.63409C57.3932 9.63409 57.1275 9.70929 56.8901 9.85949C56.6527 10.0076 56.4654 10.245 56.3282 10.5717C56.1932 10.8983 56.1257 11.3045 56.1257 11.7901C56.1257 12.1908 56.19 12.5382 56.3184 12.8322C56.4469 13.1262 56.6397 13.3516 56.8966 13.5084C57.1558 13.6652 57.4509 13.7436 57.7819 13.7436C58.0694 13.7436 58.3231 13.6826 58.5431 13.5607C58.763 13.4365 59.0047 13.1915 59.2683 12.8257L59.3695 12.891C59.1474 13.2852 58.8882 13.5737 58.5921 13.7567C58.2959 13.9396 57.9442 14.0311 57.5369 14.0311C56.803 14.0311 56.2346 13.7588 55.8317 13.2144C55.5312 12.8093 55.3809 12.3324 55.3809 11.7836C55.3809 11.3415 55.48 10.9354 55.6782 10.5651C55.8764 10.1949 56.1486 9.90849 56.4948 9.70599C56.8433 9.50129 57.2233 9.3989 57.6349 9.3989C57.9551 9.3989 58.2708 9.47729 58.5823 9.63409C58.6737 9.68199 58.7391 9.70599 58.7783 9.70599C58.8371 9.70599 58.8882 9.68529 58.9318 9.64389C58.9884 9.58509 59.0287 9.5035 59.0527 9.3989H59.167Z" fill="#e4e4f2"/>
<path d="M60.9777 11.5549H63.0357V10.2875C63.0357 10.061 63.0216 9.91178 62.9933 9.83988C62.9715 9.78548 62.9258 9.73869 62.8561 9.69949C62.7624 9.64719 62.6633 9.62109 62.5588 9.62109H62.402V9.50018H64.2967V9.62109H64.1399C64.0353 9.62109 63.9362 9.64608 63.8426 9.69618C63.7729 9.73098 63.725 9.78439 63.6989 9.85629C63.6749 9.92589 63.6629 10.0697 63.6629 10.2875V13.1458C63.6629 13.3701 63.6771 13.5182 63.7054 13.5901C63.7272 13.6445 63.7718 13.6913 63.8393 13.7305C63.9352 13.7828 64.0353 13.8089 64.1399 13.8089H64.2967V13.9298H62.402V13.8089H62.5588C62.7396 13.8089 62.8713 13.7556 62.9541 13.6489C63.0085 13.5792 63.0357 13.4115 63.0357 13.1458V11.7967H60.9777V13.1458C60.9777 13.3701 60.9919 13.5182 61.0202 13.5901C61.042 13.6445 61.0877 13.6913 61.1574 13.7305C61.251 13.7828 61.3501 13.8089 61.4547 13.8089H61.6147V13.9298H59.7168V13.8089H59.8736C60.0565 13.8089 60.1894 13.7556 60.2721 13.6489C60.3244 13.5792 60.3505 13.4115 60.3505 13.1458V10.2875C60.3505 10.061 60.3364 9.91178 60.3081 9.83988C60.2863 9.78548 60.2416 9.73869 60.1741 9.69949C60.0783 9.64719 59.9781 9.62109 59.8736 9.62109H59.7168V9.50018H61.6147V9.62109H61.4547C61.3501 9.62109 61.251 9.64608 61.1574 9.69618C61.0899 9.73098 61.0431 9.78439 61.0169 9.85629C60.9908 9.92589 60.9777 10.0697 60.9777 10.2875V11.5549Z" fill="#e4e4f2"/>
<path d="M66.5015 13.8089V13.9298H64.6035V13.8089H64.7603C64.9433 13.8089 65.0761 13.7556 65.1589 13.6489C65.2111 13.5792 65.2373 13.4115 65.2373 13.1458V10.2842C65.2373 10.0599 65.2231 9.91178 65.1948 9.83988C65.173 9.78548 65.1284 9.73869 65.0609 9.69949C64.9651 9.64719 64.8649 9.62109 64.7603 9.62109H64.6035V9.50018H66.5015V9.62109H66.3414C66.1607 9.62109 66.0289 9.67438 65.9461 9.78108C65.8917 9.85078 65.8645 10.0185 65.8645 10.2842V13.1458C65.8645 13.3701 65.8786 13.5182 65.9069 13.5901C65.9287 13.6445 65.9745 13.6913 66.0441 13.7305C66.1378 13.7828 66.2369 13.8089 66.3414 13.8089H66.5015Z" fill="#e4e4f2"/>
<path d="M70.5 12.7048L70.6078 12.7277L70.2289 13.9298H66.7988V13.8089H66.9654C67.1527 13.8089 67.2867 13.748 67.3672 13.626C67.413 13.5563 67.4358 13.3952 67.4358 13.1425V10.2842C67.4358 10.0076 67.4054 9.83449 67.3444 9.76479C67.2594 9.66899 67.1331 9.62109 66.9654 9.62109H66.7988V9.50018H68.8046V9.62109C68.5694 9.61889 68.4039 9.64069 68.3081 9.68639C68.2144 9.73209 68.1502 9.78978 68.1153 9.85948C68.0805 9.92918 68.063 10.0958 68.063 10.3593V13.1425C68.063 13.3233 68.0805 13.4474 68.1153 13.5149C68.1414 13.5607 68.1817 13.5944 68.2362 13.6162C68.2906 13.638 68.4605 13.6489 68.7458 13.6489H69.0692C69.4089 13.6489 69.6474 13.6238 69.7846 13.5737C69.9218 13.5236 70.047 13.4354 70.1603 13.3091C70.2735 13.1806 70.3867 12.9792 70.5 12.7048Z" fill="#e4e4f2"/>
<path d="M72.8178 13.8089V13.9298H70.9199V13.8089H71.0767C71.2596 13.8089 71.3925 13.7556 71.4752 13.6489C71.5275 13.5792 71.5536 13.4115 71.5536 13.1458V10.2842C71.5536 10.0599 71.5395 9.91178 71.5112 9.83988C71.4894 9.78548 71.4447 9.73869 71.3772 9.69949C71.2814 9.64719 71.1812 9.62109 71.0767 9.62109H70.9199V9.50018H72.8178V9.62109H72.6578C72.477 9.62109 72.3453 9.67438 72.2625 9.78108C72.208 9.85078 72.1808 10.0185 72.1808 10.2842V13.1458C72.1808 13.3701 72.195 13.5182 72.2233 13.5901C72.2451 13.6445 72.2908 13.6913 72.3605 13.7305C72.4541 13.7828 72.5532 13.8089 72.6578 13.8089H72.8178Z" fill="#e4e4f2"/>
<path d="M74.9819 11.4733L76.6152 13.0968C76.8831 13.3647 77.1117 13.5476 77.3012 13.6456C77.4907 13.7414 77.6801 13.7959 77.8696 13.8089V13.9298H75.7626V13.8089C75.8889 13.8089 75.9793 13.7882 76.0337 13.7469C76.0904 13.7033 76.1187 13.6554 76.1187 13.6031C76.1187 13.5509 76.1078 13.504 76.086 13.4627C76.0664 13.4213 75.9989 13.344 75.8835 13.2307L74.3547 11.7183V13.1458C74.3547 13.3701 74.3688 13.5182 74.3971 13.5901C74.4189 13.6445 74.4646 13.6913 74.5343 13.7305C74.628 13.7828 74.7271 13.8089 74.8316 13.8089H74.9819V13.9298H73.0938V13.8089H73.2505C73.4335 13.8089 73.5663 13.7556 73.6491 13.6489C73.7013 13.5792 73.7275 13.4115 73.7275 13.1458V10.2842C73.7275 10.0599 73.7134 9.91069 73.6851 9.83669C73.6633 9.78439 73.6186 9.73869 73.5511 9.69949C73.4552 9.64719 73.3551 9.62109 73.2505 9.62109H73.0938V9.50018H74.9819V9.62109H74.8316C74.7292 9.62109 74.6302 9.64608 74.5343 9.69618C74.4668 9.73098 74.4201 9.78328 74.394 9.85298C74.3678 9.92268 74.3547 10.0664 74.3547 10.2842V11.6399C74.3982 11.5985 74.5474 11.4602 74.8022 11.225C75.449 10.6326 75.8399 10.2374 75.9749 10.0392C76.0337 9.95208 76.0631 9.87589 76.0631 9.81049C76.0631 9.76039 76.0403 9.71689 75.9945 9.67989C75.9488 9.64069 75.8715 9.62109 75.7626 9.62109H75.6613V9.50018H77.2881V9.62109C77.1923 9.62319 77.1052 9.63629 77.0268 9.66029C76.9484 9.68419 76.8526 9.73098 76.7393 9.80068C76.6261 9.86818 76.4868 9.97818 76.3213 10.1307C76.2734 10.1742 76.0523 10.3974 75.6581 10.8003L74.9819 11.4733Z" fill="#e4e4f2"/>
<path d="M80.8605 11.8555V13.1458C80.8605 13.4246 80.891 13.5977 80.952 13.6652C81.0347 13.761 81.1599 13.8089 81.3276 13.8089H81.4975V13.9298H79.5996V13.8089H79.7661C79.9534 13.8089 80.0874 13.748 80.168 13.626C80.2115 13.5585 80.2333 13.3984 80.2333 13.1458V10.2842C80.2333 10.0054 80.2039 9.83229 80.1451 9.76479C80.0601 9.66899 79.9338 9.62109 79.7661 9.62109H79.5996V9.50018H81.2231C81.6194 9.50018 81.932 9.54158 82.1606 9.62428C82.3893 9.70488 82.582 9.84208 82.7388 10.0359C82.8956 10.2298 82.974 10.4595 82.974 10.7252C82.974 11.0867 82.8542 11.3807 82.6147 11.6072C82.3773 11.8337 82.0408 11.9469 81.6053 11.9469C81.4986 11.9469 81.3832 11.9393 81.259 11.9241C81.1349 11.9088 81.002 11.886 80.8605 11.8555ZM80.8605 11.6693C80.9759 11.691 81.0783 11.7074 81.1676 11.7183C81.2568 11.7292 81.3331 11.7346 81.3962 11.7346C81.6227 11.7346 81.8176 11.6475 81.981 11.4733C82.1465 11.2969 82.2292 11.0693 82.2292 10.7905C82.2292 10.5989 82.19 10.4214 82.1116 10.2581C82.0332 10.0926 81.9222 9.96949 81.7784 9.88889C81.6347 9.80619 81.4714 9.76479 81.2884 9.76479C81.1774 9.76479 81.0347 9.78548 80.8605 9.82688V11.6693Z" fill="#e4e4f2"/>
<path d="M85.659 12.4467H83.944L83.6435 13.1458C83.5695 13.3178 83.5324 13.4463 83.5324 13.5313C83.5324 13.5988 83.564 13.6587 83.6272 13.7109C83.6925 13.761 83.8319 13.7937 84.0453 13.8089V13.9298H82.6504V13.8089C82.8355 13.7763 82.9553 13.7338 83.0098 13.6815C83.1208 13.577 83.2439 13.3647 83.3789 13.0445L84.9371 9.3989H85.0514L86.5933 13.0837C86.7174 13.3799 86.8296 13.5726 86.9298 13.6619C87.0321 13.749 87.1737 13.798 87.3544 13.8089V13.9298H85.6068V13.8089C85.7832 13.8002 85.9019 13.7708 85.9628 13.7207C86.026 13.6706 86.0576 13.6097 86.0576 13.5378C86.0576 13.442 86.014 13.2906 85.9269 13.0837L85.659 12.4467ZM85.5676 12.205L84.8162 10.4149L84.0453 12.205H85.5676Z" fill="#e4e4f2"/>
<path d="M91.2695 12.7048L91.3773 12.7277L90.9984 13.9298H87.5684V13.8089H87.735C87.9223 13.8089 88.0562 13.748 88.1368 13.626C88.1825 13.5563 88.2054 13.3952 88.2054 13.1425V10.2842C88.2054 10.0076 88.1749 9.83449 88.1139 9.76479C88.029 9.66899 87.9027 9.62109 87.735 9.62109H87.5684V9.50018H89.5741V9.62109C89.3389 9.61889 89.1734 9.64069 89.0776 9.68639C88.9839 9.73209 88.9197 9.78978 88.8848 9.85948C88.85 9.92918 88.8326 10.0958 88.8326 10.3593V13.1425C88.8326 13.3233 88.85 13.4474 88.8848 13.5149C88.911 13.5607 88.9513 13.5944 89.0057 13.6162C89.0602 13.638 89.23 13.6489 89.5153 13.6489H89.8387C90.1784 13.6489 90.4169 13.6238 90.5541 13.5737C90.6913 13.5236 90.8165 13.4354 90.9298 13.3091C91.043 13.1806 91.1563 12.9792 91.2695 12.7048Z" fill="#e4e4f2"/>
<path d="M94.5848 12.4467H92.8698L92.5693 13.1458C92.4952 13.3178 92.4582 13.4463 92.4582 13.5313C92.4582 13.5988 92.4898 13.6587 92.5529 13.7109C92.6183 13.761 92.7576 13.7937 92.9711 13.8089V13.9298H91.5762V13.8089C91.7613 13.7763 91.8811 13.7338 91.9355 13.6815C92.0466 13.577 92.1696 13.3647 92.3047 13.0445L93.8629 9.3989H93.9772L95.5191 13.0837C95.6432 13.3799 95.7554 13.5726 95.8555 13.6619C95.9579 13.749 96.0994 13.798 96.2802 13.8089V13.9298H94.5325V13.8089C94.7089 13.8002 94.8276 13.7708 94.8886 13.7207C94.9518 13.6706 94.9833 13.6097 94.9833 13.5378C94.9833 13.442 94.9398 13.2906 94.8527 13.0837L94.5848 12.4467ZM94.4933 12.205L93.742 10.4149L92.9711 12.205H94.4933Z" fill="#e4e4f2"/>
<path d="M99.4854 9.50018L99.5344 10.539H99.4094C99.3854 10.3561 99.3534 10.2254 99.3114 10.147C99.2444 10.0207 99.1534 9.92809 99.0404 9.86929C98.9294 9.80829 98.7824 9.77789 98.5994 9.77789H97.9757V13.1621C97.9757 13.4344 98.0054 13.6042 98.0634 13.6717C98.1464 13.7632 98.2744 13.8089 98.4464 13.8089H98.5994V13.9298H96.7213V13.8089H96.8781C97.0654 13.8089 97.1982 13.7523 97.2766 13.6391C97.3245 13.5694 97.3485 13.4104 97.3485 13.1621V9.77789H96.816C96.6091 9.77789 96.4621 9.79309 96.375 9.82359C96.2618 9.86499 96.1649 9.94449 96.0843 10.0621C96.0037 10.1797 95.9558 10.3386 95.9406 10.539H95.8164L95.8687 9.50018H99.4854Z" fill="#e4e4f2"/>
<path d="M102.23 12.4467H100.515L100.214 13.1458C100.14 13.3178 100.103 13.4463 100.103 13.5313C100.103 13.5988 100.134 13.6587 100.198 13.7109C100.263 13.761 100.402 13.7937 100.616 13.8089V13.9298H99.2207V13.8089C99.4057 13.7763 99.5257 13.7338 99.5797 13.6815C99.6907 13.577 99.8137 13.3647 99.9487 13.0445L101.508 9.3989H101.622L103.164 13.0837C103.288 13.3799 103.4 13.5726 103.5 13.6619C103.603 13.749 103.744 13.798 103.925 13.8089V13.9298H102.177V13.8089C102.354 13.8002 102.472 13.7708 102.533 13.7207C102.596 13.6706 102.628 13.6097 102.628 13.5378C102.628 13.442 102.584 13.2906 102.497 13.0837L102.23 12.4467ZM102.138 12.205L101.387 10.4149L100.616 12.205H102.138Z" fill="#e4e4f2"/>
<path d="M107.07 9.3989V10.931H106.949C106.91 10.637 106.839 10.4029 106.737 10.2287C106.636 10.0544 106.493 9.91609 106.305 9.81379C106.118 9.71139 105.924 9.66029 105.724 9.66029C105.497 9.66029 105.31 9.72989 105.162 9.86929C105.014 10.0065 104.94 10.1633 104.94 10.3397C104.94 10.4748 104.987 10.5978 105.08 10.7089C105.215 10.8722 105.537 11.09 106.044 11.3622C106.458 11.5843 106.74 11.7553 106.89 11.8751C107.043 11.9927 107.159 12.132 107.24 12.2932C107.322 12.4544 107.364 12.6231 107.364 12.7995C107.364 13.1349 107.233 13.4246 106.972 13.6685C106.713 13.9102 106.378 14.0311 105.969 14.0311C105.84 14.0311 105.719 14.0213 105.606 14.0017C105.539 13.9908 105.398 13.9516 105.185 13.8841C104.974 13.8144 104.84 13.7795 104.783 13.7795C104.729 13.7795 104.685 13.7959 104.652 13.8285C104.622 13.8612 104.599 13.9287 104.584 14.0311H104.463V12.5121H104.584C104.64 12.83 104.717 13.0685 104.812 13.2275C104.908 13.3843 105.054 13.5149 105.25 13.6195C105.448 13.724 105.665 13.7763 105.9 13.7763C106.172 13.7763 106.387 13.7044 106.544 13.5607C106.703 13.4169 106.782 13.2471 106.782 13.0511C106.782 12.9422 106.752 12.8322 106.691 12.7211C106.632 12.6101 106.539 12.5066 106.413 12.4108C106.328 12.3455 106.096 12.2072 105.717 11.9959C105.338 11.7825 105.068 11.6126 104.907 11.4863C104.748 11.36 104.627 11.2206 104.545 11.0682C104.462 10.9158 104.42 10.7481 104.42 10.5651C104.42 10.2472 104.542 9.97389 104.786 9.74519C105.03 9.51429 105.341 9.3989 105.717 9.3989C105.953 9.3989 106.202 9.45659 106.465 9.57209C106.587 9.62649 106.673 9.65369 106.723 9.65369C106.78 9.65369 106.826 9.63739 106.861 9.60469C106.898 9.56989 106.927 9.5013 106.949 9.3989H107.07Z" fill="#e4e4f2"/>
<path d="M109.791 13.8089V13.9298H107.893V13.8089H108.05C108.233 13.8089 108.366 13.7556 108.448 13.6489C108.501 13.5792 108.527 13.4115 108.527 13.1458V10.2842C108.527 10.0599 108.513 9.91178 108.484 9.83988C108.462 9.78548 108.418 9.73869 108.35 9.69949C108.254 9.64719 108.154 9.62109 108.05 9.62109H107.893V9.50018H109.791V9.62109H109.631C109.45 9.62109 109.318 9.67438 109.236 9.78108C109.181 9.85078 109.154 10.0185 109.154 10.2842V13.1458C109.154 13.3701 109.168 13.5182 109.196 13.5901C109.218 13.6445 109.264 13.6913 109.334 13.7305C109.427 13.7828 109.526 13.8089 109.631 13.8089H109.791Z" fill="#e4e4f2"/>
</svg>
